# xmcd
#
# Track frame offsets:
#	150
#	24521
#	34406
#	51572
#	65322
#	88561
#	101747
#	119640
#	142954
#	163961
#	180993
#	215316
#	232461
#	247330
#	270483
#	316972
#
# Disc length: 4410 seconds
#
# Revision: 9
# Processed by: cddbd v1.5.2PL0 Copyright (c) Steve Scherf et al.
# Submitted via: EZCDAudioConverter 2.1.7.1
#
DISCID=f2113810
DTITLE=V/A - Feed Your Head
DYEAR=2002
DGENRE=MOJO
TTITLE0=The Dramatics - The Devil Is Dope
TTITLE1=The Sonics - Strychnine
TTITLE2=Nat Adderley - Quit It
TTITLE3=Small Faces - Here Comes The Nice
TTITLE4=Dillinger - Cocaine In My Brain
TTITLE5=Donovan - Sunny Goodge Street
TTITLE6=Country Joe and The Fish - Bass Strings
TTITLE7=Pretty Things - Defecting Grey
TTITLE8=Flamin' Groovies - Slow Death
TTITLE9=Chris Bell - I Am The Cosmos
TTITLE10=Grandmaster Flash - White Lines
TTITLE11=Sebadoh - Too Pure
TTITLE12=Mighty Hannibal - The Truth Shall Make You Free
TTITLE13=James Booker - Junco Partner
TTITLE14=Funkadelic - Maggot Brain
TTITLE15=Harry 'The Hipster' Gibson - Who Put The Benzedrine In Mrs. Murphy's 
TTITLE15=Ovaltine
EXTD=
EXTT0=
EXTT1=
EXTT2=
EXTT3=
EXTT4=
EXTT5=
EXTT6=
EXTT7=
EXTT8=
EXTT9=
EXTT10=
EXTT11=
EXTT12=
EXTT13=
EXTT14=
EXTT15=
PLAYORDER=
